Coordinates
version=1
nRows=20
nColumns=24
inDegrees=yes

Units are S.I. units (second, meters, Newtons, ...)
If the header above contains a line with 'inDegrees', this indicates whether rotational values are in degrees (yes) or radians (no).

endheader
time	pelvis_tilt	pelvis_list	pelvis_rotation	pelvis_tx	pelvis_ty	pelvis_tz	hip_flexion_r	hip_adduction_r	hip_rotation_r	knee_angle_r	ankle_angle_r	subtalar_angle_r	mtp_angle_r	hip_flexion_l	hip_adduction_l	hip_rotation_l	knee_angle_l	ankle_angle_l	subtalar_angle_l	mtp_angle_l	lumbar_extension	lumbar_bending	lumbar_rotation
3.850000	9.072393	2.422032	-179.111619	0.304543	0.497806	-1.214380	78.534558	-31.675230	-7.989042	-115.355007	42.078686	10.543686	0.000000	83.799417	-34.596638	0.682336	-114.575525	41.282362	19.348657	0.000000	-13.065407	2.187556	2.377432
3.855000	9.048470	2.419231	-179.087310	0.304618	0.497467	-1.214508	78.607633	-31.730509	-8.164287	-115.510137	41.784285	9.707237	0.000000	83.847449	-34.610193	0.718885	-114.628135	41.280859	19.422282	0.000000	-13.121718	2.178408	2.393180
3.860000	9.130854	2.430250	-179.069867	0.304798	0.497075	-1.214633	78.680447	-31.701693	-7.989210	-115.459370	42.165565	10.448861	0.000000	83.997890	-34.601918	0.749806	-114.633251	41.268125	19.420966	0.000000	-13.068864	2.210116	2.363681
3.865000	9.100808	2.409782	-179.032389	0.304868	0.496821	-1.214707	78.742216	-31.783606	-8.151591	-115.610912	41.741512	9.641672	0.000000	84.010962	-34.590544	0.749630	-114.671240	41.274068	19.446860	0.000000	-13.137648	2.208538	2.274038
3.870000	9.127158	2.426864	-179.034085	0.305004	0.496442	-1.214716	78.778913	-31.762347	-7.971037	-115.581992	42.076116	10.402788	0.000000	84.129691	-34.598705	0.813311	-114.728474	41.246576	19.420153	0.000000	-13.138976	2.177965	2.442583
3.875000	9.093240	2.415131	-179.010013	0.305085	0.496219	-1.214750	78.849639	-31.826451	-8.130600	-115.736776	41.754311	9.600458	0.000000	84.153960	-34.592919	0.842697	-114.781591	41.238968	19.446087	0.000000	-13.198990	2.204378	2.352108
3.880000	9.113736	2.420592	-179.003756	0.305240	0.495949	-1.214815	78.861845	-31.802986	-7.938266	-115.683755	42.102161	10.452992	0.000000	84.237796	-34.592315	0.877981	-114.801080	41.221357	19.437918	0.000000	-13.203989	2.203907	2.402802
3.885000	9.105356	2.420793	-178.971958	0.305338	0.495767	-1.214935	78.923805	-31.858146	-8.133948	-115.810389	41.754341	9.631170	0.000000	84.270154	-34.577982	0.906361	-114.802228	41.217337	19.474771	0.000000	-13.238915	2.203949	2.397945
3.890000	9.126675	2.430024	-178.961532	0.305490	0.495556	-1.215064	78.924312	-31.831656	-7.960109	-115.740386	42.211465	10.448934	0.000000	84.356446	-34.578838	0.958392	-114.813438	41.187590	19.518412	0.000000	-13.244083	2.214638	2.401626
3.895000	9.101984	2.422158	-178.947319	0.305561	0.495397	-1.215113	78.972389	-31.883573	-8.140862	-115.865539	41.786320	9.658330	0.000000	84.359656	-34.572744	0.968989	-114.829348	41.195107	19.519416	0.000000	-13.294255	2.212083	2.417722
3.900000	9.111379	2.439394	-178.970214	0.305690	0.495150	-1.215157	78.992487	-31.842042	-7.969790	-115.822960	42.214029	10.349608	0.000000	84.442392	-34.596568	1.031569	-114.882491	41.196247	19.554337	0.000000	-13.311220	2.182060	2.599559
3.905000	9.083419	2.409814	-178.958480	0.305778	0.494959	-1.215189	79.069273	-31.901562	-8.121599	-115.967804	41.772353	9.555451	0.000000	84.429058	-34.584845	1.013482	-114.911287	41.191854	19.527650	0.000000	-13.359000	2.207662	2.506847
3.910000	9.114907	2.402684	-178.956106	0.305949	0.494742	-1.215270	79.096823	-31.878519	-7.929506	-115.900100	42.106211	10.350800	0.000000	84.507092	-34.573963	1.037307	-114.923264	41.170502	19.517981	0.000000	-13.351457	2.205514	2.550609
3.915000	9.094976	2.374737	-178.913509	0.306059	0.494619	-1.215355	79.156323	-31.949937	-8.083873	-116.016561	41.776187	9.588530	0.000000	84.503420	-34.534566	1.036526	-114.984733	41.096865	19.554487	0.000000	-13.402256	2.181837	2.508197
3.920000	9.129053	2.384084	-178.898244	0.306226	0.494461	-1.215467	79.157506	-31.926617	-7.927687	-115.935765	42.094659	10.372694	0.000000	84.590337	-34.524684	1.060520	-114.916325	41.144329	19.585882	0.000000	-13.391104	2.182315	2.545928
3.925000	9.119864	2.392656	-178.878023	0.306284	0.494423	-1.215543	79.195256	-31.969984	-8.128573	-116.033292	41.767484	9.618564	0.000000	84.619972	-34.519572	1.089985	-114.940043	41.088378	19.561971	0.000000	-13.423473	2.207752	2.498417
3.930000	9.152520	2.409203	-178.896829	0.306428	0.494288	-1.215598	79.208281	-31.917665	-7.961636	-115.960805	42.098100	10.395584	0.000000	84.704182	-34.532878	1.137714	-114.958861	41.057431	19.531494	0.000000	-13.403979	2.235788	2.545148
3.935000	9.141324	2.327599	-178.889454	0.306512	0.494207	-1.215497	79.338357	-32.000468	-8.034656	-116.082867	41.745336	9.592057	0.000000	84.813201	-34.442419	1.512612	-114.802512	40.638511	20.175890	0.000000	-13.432509	2.167938	2.561062
3.940000	9.156127	2.314838	-178.896508	0.306691	0.494113	-1.215546	79.343177	-31.968108	-7.844754	-116.002653	42.051837	10.332312	0.000000	84.853929	-34.434506	1.551238	-114.764859	40.563337	20.207617	0.000000	-13.446080	2.178284	2.570528
3.945000	9.152900	2.292569	-178.877922	0.306809	0.494056	-1.215627	79.406746	-32.013742	-8.004225	-116.093581	41.732087	9.553532	0.000000	84.865968	-34.412871	1.560817	-114.753773	40.540860	20.285350	0.000000	-13.470817	2.166745	2.549977
